<svg width="22" height="22" viewBox="0 0 22 22" xmlns="http://www.w3.org/2000/svg" xmlns:xlink="http://www.w3.org/1999/xlink">
    <defs>
        <path id="a" d="M6.88 0H13v12.242H.76V0z" />
    </defs>
    <g fill="none" fill-rule="evenodd">
        <g transform="translate(7 2)">
            <mask id="b" fill="#fff">
                <use xlink:href="#a" />
            </mask>
            <path d="M10.99 0H6c-.553 0-1 .448-1 1s.447 1 1 1h3.5c.033 0 .064.008.096.01-.018.016-.043.022-.06.04L1.05 10.535c-.39.39-.39 1.026 0 1.414.39.39 1.025.39 1.414 0l8.486-8.486c.018-.018.023-.042.04-.06.002.032.01.063.01.096V7c0 .552.447 1 1 1 .552 0 1-.448 1-1V2.01C13 .9 12.1 0 10.99 0" fill="#FFF" mask="url(#b)" />
        </g>
        <path d="M19 12c-.553 0-1 .447-1 1v3.5c0 .828-.672 1.5-1.5 1.5h-11c-.83 0-1.5-.672-1.5-1.5v-11C4 4.67 4.67 4 5.5 4H9c.552 0 1-.448 1-1s-.448-1-1-1H5C3.343 2 2 3.343 2 5v12c0 1.657 1.343 3 3 3h12c1.657 0 3-1.343 3-3v-4c0-.553-.447-1-1-1" fill="#FFF" />
    </g>
</svg>